<svg width="48" height="48" viewBox="0 0 48 48" fill="none" xmlns="http://www.w3.org/2000/svg">
<path d="M43.4203 18.5804L35.4203 10.5804C35.2338 10.3939 35.0124 10.246 34.7688 10.1451C34.5251 10.0441 34.264 9.99219 34.0003 9.99219C33.4677 9.99219 32.9569 10.2038 32.5803 10.5804C32.2037 10.957 31.9921 11.4678 31.9921 12.0004C31.9921 12.533 32.2037 13.0438 32.5803 13.4204L37.1803 18.0004H14.0003C13.4698 18.0004 12.9611 18.2111 12.5861 18.5862C12.211 18.9612 12.0003 19.4699 12.0003 20.0004C12.0003 20.5308 12.211 21.0395 12.5861 21.4146C12.9611 21.7897 13.4698 22.0004 14.0003 22.0004H42.0003C42.3951 21.9984 42.7806 21.8796 43.108 21.6589C43.4354 21.4383 43.6902 21.1256 43.8403 20.7604C43.9934 20.3961 44.0353 19.9947 43.9605 19.6067C43.8858 19.2188 43.6978 18.8616 43.4203 18.5804ZM34.0003 26.0004H6.00028C5.60543 26.0023 5.22 26.1211 4.89256 26.3418C4.56511 26.5625 4.31032 26.8751 4.16028 27.2404C4.00712 27.6046 3.96527 28.006 4.04002 28.394C4.11477 28.782 4.30276 29.1391 4.58028 29.4204L12.5803 37.4204C12.7662 37.6078 12.9874 37.7566 13.2311 37.8582C13.4748 37.9597 13.7363 38.012 14.0003 38.012C14.2643 38.012 14.5257 37.9597 14.7694 37.8582C15.0132 37.7566 15.2344 37.6078 15.4203 37.4204C15.6077 37.2344 15.7565 37.0132 15.8581 36.7695C15.9596 36.5258 16.0119 36.2644 16.0119 36.0004C16.0119 35.7363 15.9596 35.4749 15.8581 35.2312C15.7565 34.9875 15.6077 34.7663 15.4203 34.5804L10.8203 30.0004H34.0003C34.5307 30.0004 35.0394 29.7897 35.4145 29.4146C35.7896 29.0395 36.0003 28.5308 36.0003 28.0004C36.0003 27.4699 35.7896 26.9612 35.4145 26.5862C35.0394 26.2111 34.5307 26.0004 34.0003 26.0004Z" fill="#FF4C00"/>
</svg>
