<svg width="48" height="48" viewBox="0 0 48 48" fill="none" xmlns="http://www.w3.org/2000/svg">
<path d="M38 14V8C38 7.46957 37.7893 6.96086 37.4142 6.58579C37.0391 6.21071 36.5304 6 36 6H10C8.93913 6 7.92172 6.42143 7.17157 7.17157C6.42143 7.92172 6 8.93913 6 10M6 10C6 11.0609 6.42143 12.0783 7.17157 12.8284C7.92172 13.5786 8.93913 14 10 14H40C40.5304 14 41.0391 14.2107 41.4142 14.5858C41.7893 14.9609 42 15.4696 42 16V24M6 10V38C6 39.0609 6.42143 40.0783 7.17157 40.8284C7.92172 41.5786 8.93913 42 10 42H40C40.5304 42 41.0391 41.7893 41.4142 41.4142C41.7893 41.0391 42 40.5304 42 40V32M42 24H36C34.9391 24 33.9217 24.4214 33.1716 25.1716C32.4214 25.9217 32 26.9391 32 28C32 29.0609 32.4214 30.0783 33.1716 30.8284C33.9217 31.5786 34.9391 32 36 32H42M42 24C42.5304 24 43.0391 24.2107 43.4142 24.5858C43.7893 24.9609 44 25.4696 44 26V30C44 30.5304 43.7893 31.0391 43.4142 31.4142C43.0391 31.7893 42.5304 32 42 32" stroke="#FF4C00" stroke-width="4" stroke-linecap="round" stroke-linejoin="round"/>
</svg>
